<svg width="63" height="63" viewBox="0 0 63 63" fill="none" xmlns="http://www.w3.org/2000/svg">
<g clip-path="url(#clip0_96_104)">
<path d="M31.5 62C48.3447 62 62 48.3447 62 31.5C62 14.6553 48.3447 1 31.5 1C14.6553 1 1 14.6553 1 31.5C1 48.3447 14.6553 62 31.5 62Z" fill="black" fill-opacity="0.6"/>
<path d="M31.5 62C48.3447 62 62 48.3447 62 31.5C62 14.6553 48.3447 1 31.5 1C14.6553 1 1 14.6553 1 31.5C1 48.3447 14.6553 62 31.5 62Z" fill="#E63946" fill-opacity="0.5"/>
<path d="M31.5 62C48.3447 62 62 48.3447 62 31.5C62 14.6553 48.3447 1 31.5 1C14.6553 1 1 14.6553 1 31.5C1 48.3447 14.6553 62 31.5 62Z" stroke="black" stroke-width="6"/>
<path d="M63 29.5C63 44.2736 49.7264 58.5 33.296 58.5C16.8655 58.5 4 44.2736 4 29.5C4 14.7264 16.8655 5 33.296 5C49.7264 5 63 14.7264 63 29.5Z" fill="#E63946"/>
</g>
<defs>
<clipPath id="clip0_96_104">
<rect width="63" height="63" fill="white"/>
</clipPath>
</defs>
</svg>
