<svg width="63" height="63" viewBox="0 0 63 63" fill="none" xmlns="http://www.w3.org/2000/svg">
<g clip-path="url(#clip0_96_116)">
<path d="M31.5 62C48.3447 62 62 48.3447 62 31.5C62 14.6553 48.3447 1 31.5 1C14.6553 1 1 14.6553 1 31.5C1 48.3447 14.6553 62 31.5 62Z" fill="black" fill-opacity="0.6"/>
<path d="M31.5 62C48.3447 62 62 48.3447 62 31.5C62 14.6553 48.3447 1 31.5 1C14.6553 1 1 14.6553 1 31.5C1 48.3447 14.6553 62 31.5 62Z" fill="#FFF600" fill-opacity="0.5"/>
<path d="M31.5 62C48.3447 62 62 48.3447 62 31.5C62 14.6553 48.3447 1 31.5 1C14.6553 1 1 14.6553 1 31.5C1 48.3447 14.6553 62 31.5 62Z" stroke="black" stroke-width="6"/>
<path d="M61 32C61 46.7736 47.7264 61 31.296 61C14.8655 61 2 46.7736 2 32C2 17.2264 14.8655 7.5 31.296 7.5C47.7264 7.5 61 17.2264 61 32Z" fill="#FFF600"/>
</g>
<defs>
<clipPath id="clip0_96_116">
<rect width="63" height="63" fill="white"/>
</clipPath>
</defs>
</svg>
