<svg width="632" height="589" viewBox="0 0 632 589" fill="none" xmlns="http://www.w3.org/2000/svg">
<g filter="url(#filter0_i_78_155)">
<path d="M592 0C614.091 0 632 17.909 632 40V544C632 566.091 614.091 584 592 584H40C17.909 584 0 566.091 0 544V40C0 17.909 17.909 0 40 0H592ZM580 460C562.327 460 548 474.327 548 492C548 509.673 562.327 524 580 524C597.673 524 612 509.673 612 492C612 474.327 597.673 460 580 460ZM492 460C474.327 460 460 474.327 460 492C460 509.673 474.327 524 492 524C509.673 524 524 509.673 524 492C524 474.327 509.673 460 492 460ZM404 460C386.327 460 372 474.327 372 492C372 509.673 386.327 524 404 524C421.673 524 436 509.673 436 492C436 474.327 421.673 460 404 460ZM228 460C210.327 460 196 474.327 196 492C196 509.673 210.327 524 228 524C245.673 524 260 509.673 260 492C260 474.327 245.673 460 228 460ZM316 460C298.327 460 284 474.327 284 492C284 509.673 298.327 524 316 524C333.673 524 348 509.673 348 492C348 474.327 333.673 460 316 460ZM140 460C122.327 460 108 474.327 108 492C108 509.673 122.327 524 140 524C157.673 524 172 509.673 172 492C172 474.504 157.958 460.287 140.53 460.004L140 460ZM52 460C34.327 460 20 474.327 20 492C20 509.673 34.327 524 52 524C69.673 524 84 509.673 84 492C84 474.327 69.673 460 52 460ZM580 372C562.327 372 548 386.327 548 404C548 421.673 562.327 436 580 436C597.673 436 612 421.673 612 404C612 386.327 597.673 372 580 372ZM492 372C474.327 372 460 386.327 460 404C460 421.673 474.327 436 492 436C509.673 436 524 421.673 524 404C524 386.327 509.673 372 492 372ZM404 372C386.327 372 372 386.327 372 404C372 421.673 386.327 436 404 436C421.673 436 436 421.673 436 404C436 386.327 421.673 372 404 372ZM316 372C298.327 372 284 386.327 284 404C284 421.673 298.327 436 316 436C333.673 436 348 421.673 348 404C348 386.327 333.673 372 316 372ZM228 372C210.327 372 196 386.327 196 404C196 421.673 210.327 436 228 436C245.673 436 260 421.673 260 404C260 386.327 245.673 372 228 372ZM140 372C122.327 372 108 386.327 108 404C108 421.673 122.327 436 140 436C157.673 436 172 421.673 172 404C172 386.327 157.673 372 140 372ZM52 372C34.327 372 20 386.327 20 404C20 421.673 34.327 436 52 436C69.673 436 84 421.673 84 404C84 386.327 69.673 372 52 372ZM52 284C34.327 284 20 298.327 20 316C20 333.673 34.327 348 52 348C69.673 348 84 333.673 84 316C84 298.327 69.673 284 52 284ZM140 284C122.327 284 108 298.327 108 316C108 333.673 122.327 348 140 348C157.673 348 172 333.673 172 316C172 298.327 157.673 284 140 284ZM228 284C210.327 284 196 298.327 196 316C196 333.673 210.327 348 228 348C245.673 348 260 333.673 260 316C260 298.327 245.673 284 228 284ZM316 284C298.327 284 284 298.327 284 316C284 333.673 298.327 348 316 348C333.673 348 348 333.673 348 316C348 298.327 333.673 284 316 284ZM404 284C386.327 284 372 298.327 372 316C372 333.673 386.327 348 404 348C421.673 348 436 333.673 436 316C436 298.327 421.673 284 404 284ZM492 284C474.327 284 460 298.327 460 316C460 333.673 474.327 348 492 348C509.673 348 524 333.673 524 316C524 298.327 509.673 284 492 284ZM580 284C562.327 284 548 298.327 548 316C548 333.673 562.327 348 580 348C597.673 348 612 333.673 612 316C612 298.327 597.673 284 580 284ZM140 196C122.327 196 108 210.327 108 228C108 245.673 122.327 260 140 260C157.673 260 172 245.673 172 228C172 210.327 157.673 196 140 196ZM228 196C210.327 196 196 210.327 196 228C196 245.673 210.327 260 228 260C245.673 260 260 245.673 260 228C260 210.327 245.673 196 228 196ZM316 196C298.327 196 284 210.327 284 228C284 245.673 298.327 260 316 260C333.673 260 348 245.673 348 228C348 210.327 333.673 196 316 196ZM404 196C386.327 196 372 210.327 372 228C372 245.673 386.327 260 404 260C421.673 260 436 245.673 436 228C436 210.327 421.673 196 404 196ZM492 196C474.327 196 460 210.327 460 228C460 245.673 474.327 260 492 260C509.673 260 524 245.673 524 228C524 210.327 509.673 196 492 196ZM580 196C562.327 196 548 210.327 548 228C548 245.673 562.327 260 580 260C597.673 260 612 245.673 612 228C612 210.327 597.673 196 580 196ZM52 196C34.327 196 20 210.327 20 228C20 245.673 34.327 260 52 260C69.673 260 84 245.673 84 228C84 210.327 69.673 196 52 196ZM580 108C562.327 108 548 122.327 548 140C548 157.673 562.327 172 580 172C597.673 172 612 157.673 612 140C612 122.327 597.673 108 580 108ZM492 108C474.327 108 460 122.327 460 140C460 157.673 474.327 172 492 172C509.673 172 524 157.673 524 140C524 122.327 509.673 108 492 108ZM404 108C386.327 108 372 122.327 372 140C372 157.673 386.327 172 404 172C421.673 172 436 157.673 436 140C436 122.327 421.673 108 404 108ZM316 108C298.327 108 284 122.327 284 140C284 157.673 298.327 172 316 172C333.673 172 348 157.673 348 140C348 122.327 333.673 108 316 108ZM228 108C210.327 108 196 122.327 196 140C196 157.673 210.327 172 228 172C245.673 172 260 157.673 260 140C260 122.327 245.673 108 228 108ZM140 108C122.327 108 108 122.327 108 140C108 157.673 122.327 172 140 172C157.673 172 172 157.673 172 140C172 122.327 157.673 108 140 108ZM52 108C34.327 108 20 122.327 20 140C20 157.673 34.327 172 52 172C69.673 172 84 157.673 84 140C84 122.327 69.673 108 52 108ZM580 20C562.327 20 548 34.327 548 52C548 69.673 562.327 84 580 84C597.673 84 612 69.673 612 52C612 34.327 597.673 20 580 20ZM492 20C474.327 20 460 34.327 460 52C460 69.673 474.327 84 492 84C509.673 84 524 69.673 524 52C524 34.327 509.673 20 492 20ZM404 20C386.327 20 372 34.327 372 52C372 69.673 386.327 84 404 84C421.673 84 436 69.673 436 52C436 34.327 421.673 20 404 20ZM316 20C298.327 20 284 34.327 284 52C284 69.673 298.327 84 316 84C333.673 84 348 69.673 348 52C348 34.327 333.673 20 316 20ZM228 20C210.327 20 196 34.327 196 52C196 69.673 210.327 84 228 84C245.673 84 260 69.673 260 52C260 34.327 245.673 20 228 20ZM140 20C122.327 20 108 34.327 108 52C108 69.673 122.327 84 140 84C157.673 84 172 69.673 172 52C172 34.327 157.673 20 140 20ZM52 20C34.327 20 20 34.327 20 52C20 69.673 34.327 84 52 84C69.673 84 84 69.673 84 52C84 34.327 69.673 20 52 20Z" fill="black"/>
</g>
<path fill-rule="evenodd" clip-rule="evenodd" d="M592 1.5C602.631 1.5 612.256 5.81 619.224 12.776C626.19 19.744 630.5 29.37 630.5 40V544C630.5 554.631 626.19 564.256 619.224 571.224C612.256 578.19 602.63 582.5 592 582.5H40C29.369 582.5 19.744 578.19 12.776 571.224C5.81 564.256 1.5 554.63 1.5 544V40C1.5 29.369 5.81 19.744 12.776 12.776C19.744 5.81 29.37 1.5 40 1.5H592ZM580 458.5C570.75 458.5 562.374 462.25 556.312 468.312C550.25 474.374 546.5 482.749 546.5 492C546.5 501.25 550.25 509.626 556.312 515.688C562.374 521.75 570.749 525.5 580 525.5C589.25 525.5 597.626 521.75 603.688 515.688C609.75 509.626 613.5 501.251 613.5 492C613.5 482.75 609.75 474.374 603.688 468.312C597.626 462.25 589.251 458.5 580 458.5ZM492 458.5C482.75 458.5 474.374 462.25 468.312 468.312C462.25 474.374 458.5 482.749 458.5 492C458.5 501.25 462.25 509.626 468.312 515.688C474.374 521.75 482.749 525.5 492 525.5C501.25 525.5 509.626 521.75 515.688 515.688C521.75 509.626 525.5 501.251 525.5 492C525.5 482.75 521.75 474.374 515.688 468.312C509.74 462.364 501.566 458.642 492.523 458.504L492 458.5ZM404 458.5C394.75 458.5 386.374 462.25 380.312 468.312C374.25 474.374 370.5 482.749 370.5 492C370.5 501.25 374.25 509.626 380.312 515.688C386.374 521.75 394.749 525.5 404 525.5C413.25 525.5 421.626 521.75 427.688 515.688C433.75 509.626 437.5 501.251 437.5 492C437.5 482.75 433.75 474.374 427.688 468.312C421.626 462.25 413.251 458.5 404 458.5ZM228 458.5C218.75 458.5 210.374 462.25 204.312 468.312C198.25 474.374 194.5 482.749 194.5 492C194.5 501.25 198.25 509.626 204.312 515.688C210.374 521.75 218.749 525.5 228 525.5C237.25 525.5 245.626 521.75 251.688 515.688C257.75 509.626 261.5 501.251 261.5 492C261.5 482.75 257.75 474.374 251.688 468.312C245.626 462.25 237.251 458.5 228 458.5ZM316 458.5C306.75 458.5 298.374 462.25 292.312 468.312C286.25 474.374 282.5 482.749 282.5 492C282.5 501.25 286.25 509.626 292.312 515.688C298.374 521.75 306.749 525.5 316 525.5C325.25 525.5 333.626 521.75 339.688 515.688C345.75 509.626 349.5 501.251 349.5 492C349.5 482.75 345.75 474.374 339.688 468.312C333.626 462.25 325.251 458.5 316 458.5ZM140.006 458.5C130.753 458.498 122.376 462.248 116.312 468.312C110.25 474.374 106.5 482.749 106.5 492C106.5 501.25 110.25 509.626 116.312 515.688C122.374 521.75 130.749 525.5 140 525.5C149.25 525.5 157.626 521.75 163.688 515.688C169.75 509.626 173.5 501.251 173.5 492C173.5 482.85 169.831 474.556 163.884 468.51C157.926 462.452 149.681 458.65 140.547 458.504L140.006 458.5ZM52 458.5C42.75 458.5 34.374 462.25 28.312 468.312C22.25 474.374 18.5 482.749 18.5 492C18.5 501.25 22.25 509.626 28.312 515.688C34.374 521.75 42.749 525.5 52 525.5C61.25 525.5 69.626 521.75 75.688 515.688C81.75 509.626 85.5 501.251 85.5 492C85.5 482.75 81.75 474.374 75.688 468.312C69.626 462.25 61.251 458.5 52 458.5ZM580 370.5C570.75 370.5 562.374 374.25 556.312 380.312C550.25 386.374 546.5 394.749 546.5 404C546.5 413.25 550.25 421.626 556.312 427.688C562.374 433.75 570.749 437.5 580 437.5C589.25 437.5 597.626 433.75 603.688 427.688C609.75 421.626 613.5 413.251 613.5 404C613.5 394.75 609.75 386.374 603.688 380.312C597.626 374.25 589.251 370.5 580 370.5ZM492 370.5C482.75 370.5 474.374 374.25 468.312 380.312C462.25 386.374 458.5 394.749 458.5 404C458.5 413.25 462.25 421.626 468.312 427.688C474.374 433.75 482.749 437.5 492 437.5C501.25 437.5 509.626 433.75 515.688 427.688C521.75 421.626 525.5 413.251 525.5 404C525.5 394.75 521.75 386.374 515.688 380.312C509.626 374.25 501.251 370.5 492 370.5ZM404 370.5C394.75 370.5 386.374 374.25 380.312 380.312C374.25 386.374 370.5 394.749 370.5 404C370.5 413.25 374.25 421.626 380.312 427.688C386.374 433.75 394.749 437.5 404 437.5C413.25 437.5 421.626 433.75 427.688 427.688C433.75 421.626 437.5 413.251 437.5 404C437.5 394.75 433.75 386.374 427.688 380.312C421.626 374.25 413.251 370.5 404 370.5ZM316 370.5C306.75 370.5 298.374 374.25 292.312 380.312C286.25 386.374 282.5 394.749 282.5 404C282.5 413.25 286.25 421.626 292.312 427.688C298.374 433.75 306.749 437.5 316 437.5C325.25 437.5 333.626 433.75 339.688 427.688C345.75 421.626 349.5 413.251 349.5 404C349.5 394.75 345.75 386.374 339.688 380.312C333.626 374.25 325.251 370.5 316 370.5ZM228 370.5C218.75 370.5 210.374 374.25 204.312 380.312C198.25 386.374 194.5 394.749 194.5 404C194.5 413.25 198.25 421.626 204.312 427.688C210.374 433.75 218.749 437.5 228 437.5C237.25 437.5 245.626 433.75 251.688 427.688C257.75 421.626 261.5 413.251 261.5 404C261.5 394.75 257.75 386.374 251.688 380.312C245.626 374.25 237.251 370.5 228 370.5ZM140 370.5C130.75 370.5 122.374 374.25 116.312 380.312C110.25 386.374 106.5 394.749 106.5 404C106.5 413.25 110.25 421.626 116.312 427.688C122.374 433.75 130.749 437.5 140 437.5C149.25 437.5 157.626 433.75 163.688 427.688C169.75 421.626 173.5 413.251 173.5 404C173.5 394.75 169.75 386.374 163.688 380.312C157.626 374.25 149.251 370.5 140 370.5ZM52 370.5C42.75 370.5 34.374 374.25 28.312 380.312C22.25 386.374 18.5 394.749 18.5 404C18.5 413.25 22.25 421.626 28.312 427.688C34.374 433.75 42.749 437.5 52 437.5C61.25 437.5 69.626 433.75 75.688 427.688C81.75 421.626 85.5 413.251 85.5 404C85.5 394.75 81.75 386.374 75.688 380.312C69.626 374.25 61.251 370.5 52 370.5ZM52 282.5C42.75 282.5 34.374 286.25 28.312 292.312C22.25 298.374 18.5 306.749 18.5 316C18.5 325.25 22.25 333.626 28.312 339.688C34.374 345.75 42.749 349.5 52 349.5C61.25 349.5 69.626 345.75 75.688 339.688C81.75 333.626 85.5 325.251 85.5 316C85.5 306.75 81.75 298.374 75.688 292.312C69.626 286.25 61.251 282.5 52 282.5ZM140 282.5C130.75 282.5 122.374 286.25 116.312 292.312C110.25 298.374 106.5 306.749 106.5 316C106.5 325.25 110.25 333.626 116.312 339.688C122.374 345.75 130.749 349.5 140 349.5C149.25 349.5 157.626 345.75 163.688 339.688C169.75 333.626 173.5 325.251 173.5 316C173.5 306.75 169.75 298.374 163.688 292.312C157.626 286.25 149.251 282.5 140 282.5ZM228 282.5C218.75 282.5 210.374 286.25 204.312 292.312C198.25 298.374 194.5 306.749 194.5 316C194.5 325.25 198.25 333.626 204.312 339.688C210.374 345.75 218.749 349.5 228 349.5C237.25 349.5 245.626 345.75 251.688 339.688C257.75 333.626 261.5 325.251 261.5 316C261.5 306.75 257.75 298.374 251.688 292.312C245.626 286.25 237.251 282.5 228 282.5ZM316 282.5C306.75 282.5 298.374 286.25 292.312 292.312C286.25 298.374 282.5 306.749 282.5 316C282.5 325.25 286.25 333.626 292.312 339.688C298.374 345.75 306.749 349.5 316 349.5C325.25 349.5 333.626 345.75 339.688 339.688C345.75 333.626 349.5 325.251 349.5 316C349.5 306.75 345.75 298.374 339.688 292.312C333.626 286.25 325.251 282.5 316 282.5ZM404 282.5C394.75 282.5 386.374 286.25 380.312 292.312C374.25 298.374 370.5 306.749 370.5 316C370.5 325.25 374.25 333.626 380.312 339.688C386.374 345.75 394.749 349.5 404 349.5C413.25 349.5 421.626 345.75 427.688 339.688C433.75 333.626 437.5 325.251 437.5 316C437.5 306.75 433.75 298.374 427.688 292.312C421.626 286.25 413.251 282.5 404 282.5ZM492 282.5C482.75 282.5 474.374 286.25 468.312 292.312C462.25 298.374 458.5 306.749 458.5 316C458.5 325.25 462.25 333.626 468.312 339.688C474.374 345.75 482.749 349.5 492 349.5C501.25 349.5 509.626 345.75 515.688 339.688C521.75 333.626 525.5 325.251 525.5 316C525.5 306.75 521.75 298.374 515.688 292.312C509.626 286.25 501.251 282.5 492 282.5ZM580 282.5C570.75 282.5 562.374 286.25 556.312 292.312C550.25 298.374 546.5 306.749 546.5 316C546.5 325.25 550.25 333.626 556.312 339.688C562.374 345.75 570.749 349.5 580 349.5C589.25 349.5 597.626 345.75 603.688 339.688C609.75 333.626 613.5 325.251 613.5 316C613.5 306.75 609.75 298.374 603.688 292.312C597.626 286.25 589.251 282.5 580 282.5ZM140 194.5C130.75 194.5 122.374 198.25 116.312 204.312C110.25 210.374 106.5 218.749 106.5 228C106.5 237.25 110.25 245.626 116.312 251.688C122.374 257.75 130.749 261.5 140 261.5C149.25 261.5 157.626 257.75 163.688 251.688C169.75 245.626 173.5 237.251 173.5 228C173.5 218.75 169.75 210.374 163.688 204.312C157.626 198.25 149.251 194.5 140 194.5ZM228 194.5C218.75 194.5 210.374 198.25 204.312 204.312C198.25 210.374 194.5 218.749 194.5 228C194.5 237.25 198.25 245.626 204.312 251.688C210.374 257.75 218.749 261.5 228 261.5C237.25 261.5 245.626 257.75 251.688 251.688C257.75 245.626 261.5 237.251 261.5 228C261.5 218.75 257.75 210.374 251.688 204.312C245.626 198.25 237.251 194.5 228 194.5ZM316 194.5C306.75 194.5 298.374 198.25 292.312 204.312C286.25 210.374 282.5 218.749 282.5 228C282.5 237.25 286.25 245.626 292.312 251.688C298.374 257.75 306.749 261.5 316 261.5C325.25 261.5 333.626 257.75 339.688 251.688C345.75 245.626 349.5 237.251 349.5 228C349.5 218.75 345.75 210.374 339.688 204.312C333.626 198.25 325.251 194.5 316 194.5ZM404 194.5C394.75 194.5 386.374 198.25 380.312 204.312C374.25 210.374 370.5 218.749 370.5 228C370.5 237.25 374.25 245.626 380.312 251.688C386.374 257.75 394.749 261.5 404 261.5C413.25 261.5 421.626 257.75 427.688 251.688C433.75 245.626 437.5 237.251 437.5 228C437.5 218.75 433.75 210.374 427.688 204.312C421.626 198.25 413.251 194.5 404 194.5ZM492 194.5C482.75 194.5 474.374 198.25 468.312 204.312C462.25 210.374 458.5 218.749 458.5 228C458.5 237.25 462.25 245.626 468.312 251.688C474.374 257.75 482.749 261.5 492 261.5C501.25 261.5 509.626 257.75 515.688 251.688C521.75 245.626 525.5 237.251 525.5 228C525.5 218.75 521.75 210.374 515.688 204.312C509.626 198.25 501.251 194.5 492 194.5ZM580 194.5C570.75 194.5 562.374 198.25 556.312 204.312C550.25 210.374 546.5 218.749 546.5 228C546.5 237.25 550.25 245.626 556.312 251.688C562.374 257.75 570.749 261.5 580 261.5C589.25 261.5 597.626 257.75 603.688 251.688C609.75 245.626 613.5 237.251 613.5 228C613.5 218.75 609.75 210.374 603.688 204.312C597.626 198.25 589.251 194.5 580 194.5ZM52 194.5C42.75 194.5 34.374 198.25 28.312 204.312C22.25 210.374 18.5 218.749 18.5 228C18.5 237.25 22.25 245.626 28.312 251.688C34.374 257.75 42.749 261.5 52 261.5C61.25 261.5 69.626 257.75 75.688 251.688C81.75 245.626 85.5 237.251 85.5 228C85.5 218.75 81.75 210.374 75.688 204.312C69.626 198.25 61.251 194.5 52 194.5ZM580 106.5C570.75 106.5 562.374 110.25 556.312 116.312C550.25 122.374 546.5 130.749 546.5 140C546.5 149.25 550.25 157.626 556.312 163.688C562.374 169.75 570.749 173.5 580 173.5C589.25 173.5 597.626 169.75 603.688 163.688C609.75 157.626 613.5 149.251 613.5 140C613.5 130.75 609.75 122.374 603.688 116.312C597.626 110.25 589.251 106.5 580 106.5ZM492 106.5C482.75 106.5 474.374 110.25 468.312 116.312C462.25 122.374 458.5 130.749 458.5 140C458.5 149.25 462.25 157.626 468.312 163.688C474.374 169.75 482.749 173.5 492 173.5C501.25 173.5 509.626 169.75 515.688 163.688C521.75 157.626 525.5 149.251 525.5 140C525.5 130.75 521.75 122.374 515.688 116.312C509.626 110.25 501.251 106.5 492 106.5ZM404 106.5C394.75 106.5 386.374 110.25 380.312 116.312C374.25 122.374 370.5 130.749 370.5 140C370.5 149.25 374.25 157.626 380.312 163.688C386.374 169.75 394.749 173.5 404 173.5C413.25 173.5 421.626 169.75 427.688 163.688C433.75 157.626 437.5 149.251 437.5 140C437.5 130.75 433.75 122.374 427.688 116.312C421.626 110.25 413.251 106.5 404 106.5ZM316 106.5C306.75 106.5 298.374 110.25 292.312 116.312C286.25 122.374 282.5 130.749 282.5 140C282.5 149.25 286.25 157.626 292.312 163.688C298.374 169.75 306.749 173.5 316 173.5C325.25 173.5 333.626 169.75 339.688 163.688C345.75 157.626 349.5 149.251 349.5 140C349.5 130.75 345.75 122.374 339.688 116.312C333.626 110.25 325.251 106.5 316 106.5ZM228 106.5C218.75 106.5 210.374 110.25 204.312 116.312C198.25 122.374 194.5 130.749 194.5 140C194.5 149.25 198.25 157.626 204.312 163.688C210.374 169.75 218.749 173.5 228 173.5C237.25 173.5 245.626 169.75 251.688 163.688C257.75 157.626 261.5 149.251 261.5 140C261.5 130.75 257.75 122.374 251.688 116.312C245.626 110.25 237.251 106.5 228 106.5ZM140 106.5C130.75 106.5 122.374 110.25 116.312 116.312C110.25 122.374 106.5 130.749 106.5 140C106.5 149.25 110.25 157.626 116.312 163.688C122.374 169.75 130.749 173.5 140 173.5C149.25 173.5 157.626 169.75 163.688 163.688C169.75 157.626 173.5 149.251 173.5 140C173.5 130.75 169.75 122.374 163.688 116.312C157.626 110.25 149.251 106.5 140 106.5ZM52 106.5C42.75 106.5 34.374 110.25 28.312 116.312C22.25 122.374 18.5 130.749 18.5 140C18.5 149.25 22.25 157.626 28.312 163.688C34.374 169.75 42.749 173.5 52 173.5C61.25 173.5 69.626 169.75 75.688 163.688C81.75 157.626 85.5 149.251 85.5 140C85.5 130.75 81.75 122.374 75.688 116.312C69.626 110.25 61.251 106.5 52 106.5ZM580 18.5C570.75 18.5 562.374 22.25 556.312 28.312C550.25 34.374 546.5 42.749 546.5 52C546.5 61.25 550.25 69.626 556.312 75.688C562.374 81.75 570.749 85.5 580 85.5C589.25 85.5 597.626 81.75 603.688 75.688C609.75 69.626 613.5 61.251 613.5 52C613.5 42.75 609.75 34.374 603.688 28.312C597.626 22.25 589.251 18.5 580 18.5ZM492 18.5C482.75 18.5 474.374 22.25 468.312 28.312C462.25 34.374 458.5 42.749 458.5 52C458.5 61.25 462.25 69.626 468.312 75.688C474.374 81.75 482.749 85.5 492 85.5C501.25 85.5 509.626 81.75 515.688 75.688C521.75 69.626 525.5 61.251 525.5 52C525.5 42.75 521.75 34.374 515.688 28.312C509.626 22.25 501.251 18.5 492 18.5ZM404 18.5C394.75 18.5 386.374 22.25 380.312 28.312C374.25 34.374 370.5 42.749 370.5 52C370.5 61.25 374.25 69.626 380.312 75.688C386.374 81.75 394.749 85.5 404 85.5C413.25 85.5 421.626 81.75 427.688 75.688C433.75 69.626 437.5 61.251 437.5 52C437.5 42.75 433.75 34.374 427.688 28.312C421.626 22.25 413.251 18.5 404 18.5ZM316 18.5C306.75 18.5 298.374 22.25 292.312 28.312C286.25 34.374 282.5 42.749 282.5 52C282.5 61.25 286.25 69.626 292.312 75.688C298.374 81.75 306.749 85.5 316 85.5C325.25 85.5 333.626 81.75 339.688 75.688C345.75 69.626 349.5 61.251 349.5 52C349.5 42.75 345.75 34.374 339.688 28.312C333.626 22.25 325.251 18.5 316 18.5ZM228 18.5C218.75 18.5 210.374 22.25 204.312 28.312C198.25 34.374 194.5 42.749 194.5 52C194.5 61.25 198.25 69.626 204.312 75.688C210.374 81.75 218.749 85.5 228 85.5C237.25 85.5 245.626 81.75 251.688 75.688C257.75 69.626 261.5 61.251 261.5 52C261.5 42.75 257.75 34.374 251.688 28.312C245.626 22.25 237.251 18.5 228 18.5ZM140 18.5C130.75 18.5 122.374 22.25 116.312 28.312C110.25 34.374 106.5 42.749 106.5 52C106.5 61.25 110.25 69.626 116.312 75.688C122.374 81.75 130.749 85.5 140 85.5C149.25 85.5 157.626 81.75 163.688 75.688C169.75 69.626 173.5 61.251 173.5 52C173.5 42.75 169.75 34.374 163.688 28.312C157.626 22.25 149.251 18.5 140 18.5ZM52 18.5C42.75 18.5 34.374 22.25 28.312 28.312C22.25 34.374 18.5 42.749 18.5 52C18.5 61.25 22.25 69.626 28.312 75.688C34.374 81.75 42.749 85.5 52 85.5C61.25 85.5 69.626 81.75 75.688 75.688C81.75 69.626 85.5 61.251 85.5 52C85.5 42.75 81.75 34.374 75.688 28.312C69.626 22.25 61.251 18.5 52 18.5Z" fill="black" stroke="black" stroke-width="3"/>
<g filter="url(#filter1_i_78_155)">
<path fill-rule="evenodd" clip-rule="evenodd" d="M590.5 6C601.131 6 610.756 10.31 617.724 17.276C624.69 24.244 629 33.87 629 44.5V548.5C629 559.131 624.69 568.756 617.724 575.724C610.756 582.69 601.13 587 590.5 587H38.5C27.869 587 18.244 582.69 11.276 575.724C4.31 568.756 0 559.13 0 548.5V44.5C0 33.869 4.31 24.244 11.276 17.276C18.244 10.31 27.87 6 38.5 6H590.5ZM578.5 463C569.25 463 560.874 466.75 554.812 472.812C548.75 478.874 545 487.249 545 496.5C545 505.75 548.75 514.126 554.812 520.188C560.874 526.25 569.249 530 578.5 530C587.75 530 596.126 526.25 602.188 520.188C608.25 514.126 612 505.751 612 496.5C612 487.25 608.25 478.874 602.188 472.812C596.126 466.75 587.751 463 578.5 463ZM490.5 463C481.25 463 472.874 466.75 466.812 472.812C460.75 478.874 457 487.249 457 496.5C457 505.75 460.75 514.126 466.812 520.188C472.874 526.25 481.249 530 490.5 530C499.75 530 508.126 526.25 514.188 520.188C520.25 514.126 524 505.751 524 496.5C524 487.25 520.25 478.874 514.188 472.812C508.126 466.75 499.751 463 490.5 463ZM402.5 463C393.25 463 384.874 466.75 378.812 472.812C372.75 478.874 369 487.249 369 496.5C369 505.75 372.75 514.126 378.812 520.188C384.874 526.25 393.249 530 402.5 530C411.75 530 420.126 526.25 426.188 520.188C432.25 514.126 436 505.751 436 496.5C436 487.25 432.25 478.874 426.188 472.812C420.126 466.75 411.751 463 402.5 463ZM226.5 463C217.25 463 208.874 466.75 202.812 472.812C196.75 478.874 193 487.249 193 496.5C193 505.75 196.75 514.126 202.812 520.188C208.874 526.25 217.249 530 226.5 530C235.75 530 244.126 526.25 250.188 520.188C256.25 514.126 260 505.751 260 496.5C260 487.25 256.25 478.874 250.188 472.812C244.126 466.75 235.751 463 226.5 463ZM314.5 463C305.25 463 296.874 466.75 290.812 472.812C284.75 478.874 281 487.249 281 496.5C281 505.75 284.75 514.126 290.812 520.188C296.874 526.25 305.249 530 314.5 530C323.75 530 332.126 526.25 338.188 520.188C344.25 514.126 348 505.751 348 496.5C348 487.25 344.25 478.874 338.188 472.812C332.126 466.75 323.751 463 314.5 463ZM138.506 463C129.253 462.998 120.876 466.748 114.812 472.812C108.75 478.874 105 487.249 105 496.5C105 505.75 108.75 514.126 114.812 520.188C120.874 526.25 129.249 530 138.5 530C147.75 530 156.126 526.25 162.188 520.188C168.25 514.126 172 505.751 172 496.5C172 487.35 168.331 479.056 162.384 473.01C156.426 466.952 148.181 463.15 139.047 463.004L138.506 463ZM50.5 463C41.25 463 32.874 466.75 26.812 472.812C20.75 478.874 17 487.249 17 496.5C17 505.75 20.75 514.126 26.812 520.188C32.874 526.25 41.249 530 50.5 530C59.75 530 68.126 526.25 74.188 520.188C80.25 514.126 84 505.751 84 496.5C84 487.25 80.25 478.874 74.188 472.812C68.126 466.75 59.751 463 50.5 463ZM578.5 375C569.25 375 560.874 378.75 554.812 384.812C548.75 390.874 545 399.249 545 408.5C545 417.75 548.75 426.126 554.812 432.188C560.874 438.25 569.249 442 578.5 442C587.75 442 596.126 438.25 602.188 432.188C608.25 426.126 612 417.751 612 408.5C612 399.25 608.25 390.874 602.188 384.812C596.126 378.75 587.751 375 578.5 375ZM490.5 375C481.25 375 472.874 378.75 466.812 384.812C460.75 390.874 457 399.249 457 408.5C457 417.75 460.75 426.126 466.812 432.188C472.874 438.25 481.249 442 490.5 442C499.75 442 508.126 438.25 514.188 432.188C520.25 426.126 524 417.751 524 408.5C524 399.25 520.25 390.874 514.188 384.812C508.126 378.75 499.751 375 490.5 375ZM402.5 375C393.25 375 384.874 378.75 378.812 384.812C372.75 390.874 369 399.249 369 408.5C369 417.75 372.75 426.126 378.812 432.188C384.874 438.25 393.249 442 402.5 442C411.75 442 420.126 438.25 426.188 432.188C432.25 426.126 436 417.751 436 408.5C436 399.25 432.25 390.874 426.188 384.812C420.126 378.75 411.751 375 402.5 375ZM314.5 375C305.25 375 296.874 378.75 290.812 384.812C284.75 390.874 281 399.249 281 408.5C281 417.75 284.75 426.126 290.812 432.188C296.874 438.25 305.249 442 314.5 442C323.75 442 332.126 438.25 338.188 432.188C344.25 426.126 348 417.751 348 408.5C348 399.25 344.25 390.874 338.188 384.812C332.126 378.75 323.751 375 314.5 375ZM226.5 375C217.25 375 208.874 378.75 202.812 384.812C196.75 390.874 193 399.249 193 408.5C193 417.75 196.75 426.126 202.812 432.188C208.874 438.25 217.249 442 226.5 442C235.75 442 244.126 438.25 250.188 432.188C256.25 426.126 260 417.751 260 408.5C260 399.25 256.25 390.874 250.188 384.812C244.126 378.75 235.751 375 226.5 375ZM138.5 375C129.25 375 120.874 378.75 114.812 384.812C108.75 390.874 105 399.249 105 408.5C105 417.75 108.75 426.126 114.812 432.188C120.874 438.25 129.249 442 138.5 442C147.75 442 156.126 438.25 162.188 432.188C168.25 426.126 172 417.751 172 408.5C172 399.25 168.25 390.874 162.188 384.812C156.126 378.75 147.751 375 138.5 375ZM50.5 375C41.25 375 32.874 378.75 26.812 384.812C20.75 390.874 17 399.249 17 408.5C17 417.75 20.75 426.126 26.812 432.188C32.874 438.25 41.249 442 50.5 442C59.75 442 68.126 438.25 74.188 432.188C80.25 426.126 84 417.751 84 408.5C84 399.25 80.25 390.874 74.188 384.812C68.126 378.75 59.751 375 50.5 375ZM50.5 287C41.25 287 32.874 290.75 26.812 296.812C20.75 302.874 17 311.249 17 320.5C17 329.75 20.75 338.126 26.812 344.188C32.874 350.25 41.249 354 50.5 354C59.75 354 68.126 350.25 74.188 344.188C80.25 338.126 84 329.751 84 320.5C84 311.25 80.25 302.874 74.188 296.812C68.126 290.75 59.751 287 50.5 287ZM138.5 287C129.25 287 120.874 290.75 114.812 296.812C108.75 302.874 105 311.249 105 320.5C105 329.75 108.75 338.126 114.812 344.188C120.874 350.25 129.249 354 138.5 354C147.75 354 156.126 350.25 162.188 344.188C168.25 338.126 172 329.751 172 320.5C172 311.25 168.25 302.874 162.188 296.812C156.126 290.75 147.751 287 138.5 287ZM226.5 287C217.25 287 208.874 290.75 202.812 296.812C196.75 302.874 193 311.249 193 320.5C193 329.75 196.75 338.126 202.812 344.188C208.874 350.25 217.249 354 226.5 354C235.75 354 244.126 350.25 250.188 344.188C256.25 338.126 260 329.751 260 320.5C260 311.25 256.25 302.874 250.188 296.812C244.126 290.75 235.751 287 226.5 287ZM314.5 287C305.25 287 296.874 290.75 290.812 296.812C284.75 302.874 281 311.249 281 320.5C281 329.75 284.75 338.126 290.812 344.188C296.874 350.25 305.249 354 314.5 354C323.75 354 332.126 350.25 338.188 344.188C344.25 338.126 348 329.751 348 320.5C348 311.25 344.25 302.874 338.188 296.812C332.126 290.75 323.751 287 314.5 287ZM402.5 287C393.25 287 384.874 290.75 378.812 296.812C372.75 302.874 369 311.249 369 320.5C369 329.75 372.75 338.126 378.812 344.188C384.874 350.25 393.249 354 402.5 354C411.75 354 420.126 350.25 426.188 344.188C432.25 338.126 436 329.751 436 320.5C436 311.25 432.25 302.874 426.188 296.812C420.126 290.75 411.751 287 402.5 287ZM490.5 287C481.25 287 472.874 290.75 466.812 296.812C460.75 302.874 457 311.249 457 320.5C457 329.75 460.75 338.126 466.812 344.188C472.874 350.25 481.249 354 490.5 354C499.75 354 508.126 350.25 514.188 344.188C520.25 338.126 524 329.751 524 320.5C524 311.25 520.25 302.874 514.188 296.812C508.126 290.75 499.751 287 490.5 287ZM578.5 287C569.25 287 560.874 290.75 554.812 296.812C548.75 302.874 545 311.249 545 320.5C545 329.75 548.75 338.126 554.812 344.188C560.874 350.25 569.249 354 578.5 354C587.75 354 596.126 350.25 602.188 344.188C608.25 338.126 612 329.751 612 320.5C612 311.25 608.25 302.874 602.188 296.812C596.126 290.75 587.751 287 578.5 287ZM138.5 199C129.25 199 120.874 202.75 114.812 208.812C108.75 214.874 105 223.249 105 232.5C105 241.75 108.75 250.126 114.812 256.188C120.874 262.25 129.249 266 138.5 266C147.75 266 156.126 262.25 162.188 256.188C168.25 250.126 172 241.751 172 232.5C172 223.25 168.25 214.874 162.188 208.812C156.126 202.75 147.751 199 138.5 199ZM226.5 199C217.25 199 208.874 202.75 202.812 208.812C196.75 214.874 193 223.249 193 232.5C193 241.75 196.75 250.126 202.812 256.188C208.874 262.25 217.249 266 226.5 266C235.75 266 244.126 262.25 250.188 256.188C256.25 250.126 260 241.751 260 232.5C260 223.25 256.25 214.874 250.188 208.812C244.126 202.75 235.751 199 226.5 199ZM314.5 199C305.25 199 296.874 202.75 290.812 208.812C284.75 214.874 281 223.249 281 232.5C281 241.75 284.75 250.126 290.812 256.188C296.874 262.25 305.249 266 314.5 266C323.75 266 332.126 262.25 338.188 256.188C344.25 250.126 348 241.751 348 232.5C348 223.25 344.25 214.874 338.188 208.812C332.126 202.75 323.751 199 314.5 199ZM402.5 199C393.25 199 384.874 202.75 378.812 208.812C372.75 214.874 369 223.249 369 232.5C369 241.75 372.75 250.126 378.812 256.188C384.874 262.25 393.249 266 402.5 266C411.75 266 420.126 262.25 426.188 256.188C432.25 250.126 436 241.751 436 232.5C436 223.25 432.25 214.874 426.188 208.812C420.126 202.75 411.751 199 402.5 199ZM490.5 199C481.25 199 472.874 202.75 466.812 208.812C460.75 214.874 457 223.249 457 232.5C457 241.75 460.75 250.126 466.812 256.188C472.874 262.25 481.249 266 490.5 266C499.75 266 508.126 262.25 514.188 256.188C520.25 250.126 524 241.751 524 232.5C524 223.25 520.25 214.874 514.188 208.812C508.126 202.75 499.751 199 490.5 199ZM578.5 199C569.25 199 560.874 202.75 554.812 208.812C548.75 214.874 545 223.249 545 232.5C545 241.75 548.75 250.126 554.812 256.188C560.874 262.25 569.249 266 578.5 266C587.75 266 596.126 262.25 602.188 256.188C608.25 250.126 612 241.751 612 232.5C612 223.25 608.25 214.874 602.188 208.812C596.126 202.75 587.751 199 578.5 199ZM50.5 199C41.25 199 32.874 202.75 26.812 208.812C20.75 214.874 17 223.249 17 232.5C17 241.75 20.75 250.126 26.812 256.188C32.874 262.25 41.249 266 50.5 266C59.75 266 68.126 262.25 74.188 256.188C80.25 250.126 84 241.751 84 232.5C84 223.25 80.25 214.874 74.188 208.812C68.126 202.75 59.751 199 50.5 199ZM578.5 111C569.25 111 560.874 114.75 554.812 120.812C548.75 126.874 545 135.249 545 144.5C545 153.75 548.75 162.126 554.812 168.188C560.874 174.25 569.249 178 578.5 178C587.75 178 596.126 174.25 602.188 168.188C608.25 162.126 612 153.751 612 144.5C612 135.25 608.25 126.874 602.188 120.812C596.126 114.75 587.751 111 578.5 111ZM490.5 111C481.25 111 472.874 114.75 466.812 120.812C460.75 126.874 457 135.249 457 144.5C457 153.75 460.75 162.126 466.812 168.188C472.874 174.25 481.249 178 490.5 178C499.75 178 508.126 174.25 514.188 168.188C520.25 162.126 524 153.751 524 144.5C524 135.25 520.25 126.874 514.188 120.812C508.126 114.75 499.751 111 490.5 111ZM402.5 111C393.25 111 384.874 114.75 378.812 120.812C372.75 126.874 369 135.249 369 144.5C369 153.75 372.75 162.126 378.812 168.188C384.874 174.25 393.249 178 402.5 178C411.75 178 420.126 174.25 426.188 168.188C432.25 162.126 436 153.751 436 144.5C436 135.25 432.25 126.874 426.188 120.812C420.126 114.75 411.751 111 402.5 111ZM314.5 111C305.25 111 296.874 114.75 290.812 120.812C284.75 126.874 281 135.249 281 144.5C281 153.75 284.75 162.126 290.812 168.188C296.874 174.25 305.249 178 314.5 178C323.75 178 332.126 174.25 338.188 168.188C344.25 162.126 348 153.751 348 144.5C348 135.25 344.25 126.874 338.188 120.812C332.126 114.75 323.751 111 314.5 111ZM226.5 111C217.25 111 208.874 114.75 202.812 120.812C196.75 126.874 193 135.249 193 144.5C193 153.75 196.75 162.126 202.812 168.188C208.874 174.25 217.249 178 226.5 178C235.75 178 244.126 174.25 250.188 168.188C256.25 162.126 260 153.751 260 144.5C260 135.25 256.25 126.874 250.188 120.812C244.126 114.75 235.751 111 226.5 111ZM138.5 111C129.25 111 120.874 114.75 114.812 120.812C108.75 126.874 105 135.249 105 144.5C105 153.75 108.75 162.126 114.812 168.188C120.874 174.25 129.249 178 138.5 178C147.75 178 156.126 174.25 162.188 168.188C168.25 162.126 172 153.751 172 144.5C172 135.25 168.25 126.874 162.188 120.812C156.126 114.75 147.751 111 138.5 111ZM50.5 111C41.25 111 32.874 114.75 26.812 120.812C20.75 126.874 17 135.249 17 144.5C17 153.75 20.75 162.126 26.812 168.188C32.874 174.25 41.249 178 50.5 178C59.75 178 68.126 174.25 74.188 168.188C80.25 162.126 84 153.751 84 144.5C84 135.25 80.25 126.874 74.188 120.812C68.126 114.75 59.751 111 50.5 111ZM578.5 23C569.25 23 560.874 26.75 554.812 32.812C548.75 38.874 545 47.249 545 56.5C545 65.75 548.75 74.126 554.812 80.188C560.874 86.25 569.249 90 578.5 90C587.75 90 596.126 86.25 602.188 80.188C608.25 74.126 612 65.751 612 56.5C612 47.25 608.25 38.874 602.188 32.812C596.126 26.75 587.751 23 578.5 23ZM490.5 23C481.25 23 472.874 26.75 466.812 32.812C460.75 38.874 457 47.249 457 56.5C457 65.75 460.75 74.126 466.812 80.188C472.874 86.25 481.249 90 490.5 90C499.75 90 508.126 86.25 514.188 80.188C520.25 74.126 524 65.751 524 56.5C524 47.25 520.25 38.874 514.188 32.812C508.126 26.75 499.751 23 490.5 23ZM402.5 23C393.25 23 384.874 26.75 378.812 32.812C372.75 38.874 369 47.249 369 56.5C369 65.75 372.75 74.126 378.812 80.188C384.874 86.25 393.249 90 402.5 90C411.75 90 420.126 86.25 426.188 80.188C432.25 74.126 436 65.751 436 56.5C436 47.25 432.25 38.874 426.188 32.812C420.126 26.75 411.751 23 402.5 23ZM314.5 23C305.25 23 296.874 26.75 290.812 32.812C284.75 38.874 281 47.249 281 56.5C281 65.75 284.75 74.126 290.812 80.188C296.874 86.25 305.249 90 314.5 90C323.75 90 332.126 86.25 338.188 80.188C344.25 74.126 348 65.751 348 56.5C348 47.25 344.25 38.874 338.188 32.812C332.126 26.75 323.751 23 314.5 23ZM226.5 23C217.25 23 208.874 26.75 202.812 32.812C196.75 38.874 193 47.249 193 56.5C193 65.75 196.75 74.126 202.812 80.188C208.874 86.25 217.249 90 226.5 90C235.75 90 244.126 86.25 250.188 80.188C256.25 74.126 260 65.751 260 56.5C260 47.25 256.25 38.874 250.188 32.812C244.126 26.75 235.751 23 226.5 23ZM138.5 23C129.25 23 120.874 26.75 114.812 32.812C108.75 38.874 105 47.249 105 56.5C105 65.75 108.75 74.126 114.812 80.188C120.874 86.25 129.249 90 138.5 90C147.75 90 156.126 86.25 162.188 80.188C168.25 74.126 172 65.751 172 56.5C172 47.25 168.25 38.874 162.188 32.812C156.126 26.75 147.751 23 138.5 23ZM50.5 23C41.25 23 32.874 26.75 26.812 32.812C20.75 38.874 17 47.249 17 56.5C17 65.75 20.75 74.126 26.812 80.188C32.874 86.25 41.249 90 50.5 90C59.75 90 68.126 86.25 74.188 80.188C80.25 74.126 84 65.751 84 56.5C84 47.25 80.25 38.874 74.188 32.812C68.126 26.75 59.751 23 50.5 23Z" fill="#094292"/>
</g>
<path fill-rule="evenodd" clip-rule="evenodd" d="M590.5 6C601.131 6 610.756 10.31 617.724 17.276C624.69 24.244 629 33.87 629 44.5V548.5C629 559.131 624.69 568.756 617.724 575.724C610.756 582.69 601.13 587 590.5 587H38.5C27.869 587 18.244 582.69 11.276 575.724C4.31 568.756 0 559.13 0 548.5V44.5C0 33.869 4.31 24.244 11.276 17.276C18.244 10.31 27.87 6 38.5 6H590.5ZM578.5 463C569.25 463 560.874 466.75 554.812 472.812C548.75 478.874 545 487.249 545 496.5C545 505.75 548.75 514.126 554.812 520.188C560.874 526.25 569.249 530 578.5 530C587.75 530 596.126 526.25 602.188 520.188C608.25 514.126 612 505.751 612 496.5C612 487.25 608.25 478.874 602.188 472.812C596.126 466.75 587.751 463 578.5 463ZM490.5 463C481.25 463 472.874 466.75 466.812 472.812C460.75 478.874 457 487.249 457 496.5C457 505.75 460.75 514.126 466.812 520.188C472.874 526.25 481.249 530 490.5 530C499.75 530 508.126 526.25 514.188 520.188C520.25 514.126 524 505.751 524 496.5C524 487.25 520.25 478.874 514.188 472.812C508.126 466.75 499.751 463 490.5 463ZM402.5 463C393.25 463 384.874 466.75 378.812 472.812C372.75 478.874 369 487.249 369 496.5C369 505.75 372.75 514.126 378.812 520.188C384.874 526.25 393.249 530 402.5 530C411.75 530 420.126 526.25 426.188 520.188C432.25 514.126 436 505.751 436 496.5C436 487.25 432.25 478.874 426.188 472.812C420.126 466.75 411.751 463 402.5 463ZM226.5 463C217.25 463 208.874 466.75 202.812 472.812C196.75 478.874 193 487.249 193 496.5C193 505.75 196.75 514.126 202.812 520.188C208.874 526.25 217.249 530 226.5 530C235.75 530 244.126 526.25 250.188 520.188C256.25 514.126 260 505.751 260 496.5C260 487.25 256.25 478.874 250.188 472.812C244.126 466.75 235.751 463 226.5 463ZM314.5 463C305.25 463 296.874 466.75 290.812 472.812C284.75 478.874 281 487.249 281 496.5C281 505.75 284.75 514.126 290.812 520.188C296.874 526.25 305.249 530 314.5 530C323.75 530 332.126 526.25 338.188 520.188C344.25 514.126 348 505.751 348 496.5C348 487.25 344.25 478.874 338.188 472.812C332.126 466.75 323.751 463 314.5 463ZM138.506 463C129.253 462.998 120.876 466.748 114.812 472.812C108.75 478.874 105 487.249 105 496.5C105 505.75 108.75 514.126 114.812 520.188C120.874 526.25 129.249 530 138.5 530C147.75 530 156.126 526.25 162.188 520.188C168.25 514.126 172 505.751 172 496.5C172 487.35 168.331 479.056 162.384 473.01C156.426 466.952 148.181 463.15 139.047 463.004L138.506 463ZM50.5 463C41.25 463 32.874 466.75 26.812 472.812C20.75 478.874 17 487.249 17 496.5C17 505.75 20.75 514.126 26.812 520.188C32.874 526.25 41.249 530 50.5 530C59.75 530 68.126 526.25 74.188 520.188C80.25 514.126 84 505.751 84 496.5C84 487.25 80.25 478.874 74.188 472.812C68.126 466.75 59.751 463 50.5 463ZM578.5 375C569.25 375 560.874 378.75 554.812 384.812C548.75 390.874 545 399.249 545 408.5C545 417.75 548.75 426.126 554.812 432.188C560.874 438.25 569.249 442 578.5 442C587.75 442 596.126 438.25 602.188 432.188C608.25 426.126 612 417.751 612 408.5C612 399.25 608.25 390.874 602.188 384.812C596.126 378.75 587.751 375 578.5 375ZM490.5 375C481.25 375 472.874 378.75 466.812 384.812C460.75 390.874 457 399.249 457 408.5C457 417.75 460.75 426.126 466.812 432.188C472.874 438.25 481.249 442 490.5 442C499.75 442 508.126 438.25 514.188 432.188C520.25 426.126 524 417.751 524 408.5C524 399.25 520.25 390.874 514.188 384.812C508.126 378.75 499.751 375 490.5 375ZM402.5 375C393.25 375 384.874 378.75 378.812 384.812C372.75 390.874 369 399.249 369 408.5C369 417.75 372.75 426.126 378.812 432.188C384.874 438.25 393.249 442 402.5 442C411.75 442 420.126 438.25 426.188 432.188C432.25 426.126 436 417.751 436 408.5C436 399.25 432.25 390.874 426.188 384.812C420.126 378.75 411.751 375 402.5 375ZM314.5 375C305.25 375 296.874 378.75 290.812 384.812C284.75 390.874 281 399.249 281 408.5C281 417.75 284.75 426.126 290.812 432.188C296.874 438.25 305.249 442 314.5 442C323.75 442 332.126 438.25 338.188 432.188C344.25 426.126 348 417.751 348 408.5C348 399.25 344.25 390.874 338.188 384.812C332.126 378.75 323.751 375 314.5 375ZM226.5 375C217.25 375 208.874 378.75 202.812 384.812C196.75 390.874 193 399.249 193 408.5C193 417.75 196.75 426.126 202.812 432.188C208.874 438.25 217.249 442 226.5 442C235.75 442 244.126 438.25 250.188 432.188C256.25 426.126 260 417.751 260 408.5C260 399.25 256.25 390.874 250.188 384.812C244.126 378.75 235.751 375 226.5 375ZM138.5 375C129.25 375 120.874 378.75 114.812 384.812C108.75 390.874 105 399.249 105 408.5C105 417.75 108.75 426.126 114.812 432.188C120.874 438.25 129.249 442 138.5 442C147.75 442 156.126 438.25 162.188 432.188C168.25 426.126 172 417.751 172 408.5C172 399.25 168.25 390.874 162.188 384.812C156.126 378.75 147.751 375 138.5 375ZM50.5 375C41.25 375 32.874 378.75 26.812 384.812C20.75 390.874 17 399.249 17 408.5C17 417.75 20.75 426.126 26.812 432.188C32.874 438.25 41.249 442 50.5 442C59.75 442 68.126 438.25 74.188 432.188C80.25 426.126 84 417.751 84 408.5C84 399.25 80.25 390.874 74.188 384.812C68.126 378.75 59.751 375 50.5 375ZM50.5 287C41.25 287 32.874 290.75 26.812 296.812C20.75 302.874 17 311.249 17 320.5C17 329.75 20.75 338.126 26.812 344.188C32.874 350.25 41.249 354 50.5 354C59.75 354 68.126 350.25 74.188 344.188C80.25 338.126 84 329.751 84 320.5C84 311.25 80.25 302.874 74.188 296.812C68.126 290.75 59.751 287 50.5 287ZM138.5 287C129.25 287 120.874 290.75 114.812 296.812C108.75 302.874 105 311.249 105 320.5C105 329.75 108.75 338.126 114.812 344.188C120.874 350.25 129.249 354 138.5 354C147.75 354 156.126 350.25 162.188 344.188C168.25 338.126 172 329.751 172 320.5C172 311.25 168.25 302.874 162.188 296.812C156.126 290.75 147.751 287 138.5 287ZM226.5 287C217.25 287 208.874 290.75 202.812 296.812C196.75 302.874 193 311.249 193 320.5C193 329.75 196.75 338.126 202.812 344.188C208.874 350.25 217.249 354 226.5 354C235.75 354 244.126 350.25 250.188 344.188C256.25 338.126 260 329.751 260 320.5C260 311.25 256.25 302.874 250.188 296.812C244.126 290.75 235.751 287 226.5 287ZM314.5 287C305.25 287 296.874 290.75 290.812 296.812C284.75 302.874 281 311.249 281 320.5C281 329.75 284.75 338.126 290.812 344.188C296.874 350.25 305.249 354 314.5 354C323.75 354 332.126 350.25 338.188 344.188C344.25 338.126 348 329.751 348 320.5C348 311.25 344.25 302.874 338.188 296.812C332.126 290.75 323.751 287 314.5 287ZM402.5 287C393.25 287 384.874 290.75 378.812 296.812C372.75 302.874 369 311.249 369 320.5C369 329.75 372.75 338.126 378.812 344.188C384.874 350.25 393.249 354 402.5 354C411.75 354 420.126 350.25 426.188 344.188C432.25 338.126 436 329.751 436 320.5C436 311.25 432.25 302.874 426.188 296.812C420.126 290.75 411.751 287 402.5 287ZM490.5 287C481.25 287 472.874 290.75 466.812 296.812C460.75 302.874 457 311.249 457 320.5C457 329.75 460.75 338.126 466.812 344.188C472.874 350.25 481.249 354 490.5 354C499.75 354 508.126 350.25 514.188 344.188C520.25 338.126 524 329.751 524 320.5C524 311.25 520.25 302.874 514.188 296.812C508.126 290.75 499.751 287 490.5 287ZM578.5 287C569.25 287 560.874 290.75 554.812 296.812C548.75 302.874 545 311.249 545 320.5C545 329.75 548.75 338.126 554.812 344.188C560.874 350.25 569.249 354 578.5 354C587.75 354 596.126 350.25 602.188 344.188C608.25 338.126 612 329.751 612 320.5C612 311.25 608.25 302.874 602.188 296.812C596.126 290.75 587.751 287 578.5 287ZM138.5 199C129.25 199 120.874 202.75 114.812 208.812C108.75 214.874 105 223.249 105 232.5C105 241.75 108.75 250.126 114.812 256.188C120.874 262.25 129.249 266 138.5 266C147.75 266 156.126 262.25 162.188 256.188C168.25 250.126 172 241.751 172 232.5C172 223.25 168.25 214.874 162.188 208.812C156.126 202.75 147.751 199 138.5 199ZM226.5 199C217.25 199 208.874 202.75 202.812 208.812C196.75 214.874 193 223.249 193 232.5C193 241.75 196.75 250.126 202.812 256.188C208.874 262.25 217.249 266 226.5 266C235.75 266 244.126 262.25 250.188 256.188C256.25 250.126 260 241.751 260 232.5C260 223.25 256.25 214.874 250.188 208.812C244.126 202.75 235.751 199 226.5 199ZM314.5 199C305.25 199 296.874 202.75 290.812 208.812C284.75 214.874 281 223.249 281 232.5C281 241.75 284.75 250.126 290.812 256.188C296.874 262.25 305.249 266 314.5 266C323.75 266 332.126 262.25 338.188 256.188C344.25 250.126 348 241.751 348 232.5C348 223.25 344.25 214.874 338.188 208.812C332.126 202.75 323.751 199 314.5 199ZM402.5 199C393.25 199 384.874 202.75 378.812 208.812C372.75 214.874 369 223.249 369 232.5C369 241.75 372.75 250.126 378.812 256.188C384.874 262.25 393.249 266 402.5 266C411.75 266 420.126 262.25 426.188 256.188C432.25 250.126 436 241.751 436 232.5C436 223.25 432.25 214.874 426.188 208.812C420.126 202.75 411.751 199 402.5 199ZM490.5 199C481.25 199 472.874 202.75 466.812 208.812C460.75 214.874 457 223.249 457 232.5C457 241.75 460.75 250.126 466.812 256.188C472.874 262.25 481.249 266 490.5 266C499.75 266 508.126 262.25 514.188 256.188C520.25 250.126 524 241.751 524 232.5C524 223.25 520.25 214.874 514.188 208.812C508.126 202.75 499.751 199 490.5 199ZM578.5 199C569.25 199 560.874 202.75 554.812 208.812C548.75 214.874 545 223.249 545 232.5C545 241.75 548.75 250.126 554.812 256.188C560.874 262.25 569.249 266 578.5 266C587.75 266 596.126 262.25 602.188 256.188C608.25 250.126 612 241.751 612 232.5C612 223.25 608.25 214.874 602.188 208.812C596.126 202.75 587.751 199 578.5 199ZM50.5 199C41.25 199 32.874 202.75 26.812 208.812C20.75 214.874 17 223.249 17 232.5C17 241.75 20.75 250.126 26.812 256.188C32.874 262.25 41.249 266 50.5 266C59.75 266 68.126 262.25 74.188 256.188C80.25 250.126 84 241.751 84 232.5C84 223.25 80.25 214.874 74.188 208.812C68.126 202.75 59.751 199 50.5 199ZM578.5 111C569.25 111 560.874 114.75 554.812 120.812C548.75 126.874 545 135.249 545 144.5C545 153.75 548.75 162.126 554.812 168.188C560.874 174.25 569.249 178 578.5 178C587.75 178 596.126 174.25 602.188 168.188C608.25 162.126 612 153.751 612 144.5C612 135.25 608.25 126.874 602.188 120.812C596.126 114.75 587.751 111 578.5 111ZM490.5 111C481.25 111 472.874 114.75 466.812 120.812C460.75 126.874 457 135.249 457 144.5C457 153.75 460.75 162.126 466.812 168.188C472.874 174.25 481.249 178 490.5 178C499.75 178 508.126 174.25 514.188 168.188C520.25 162.126 524 153.751 524 144.5C524 135.25 520.25 126.874 514.188 120.812C508.126 114.75 499.751 111 490.5 111ZM402.5 111C393.25 111 384.874 114.75 378.812 120.812C372.75 126.874 369 135.249 369 144.5C369 153.75 372.75 162.126 378.812 168.188C384.874 174.25 393.249 178 402.5 178C411.75 178 420.126 174.25 426.188 168.188C432.25 162.126 436 153.751 436 144.5C436 135.25 432.25 126.874 426.188 120.812C420.126 114.75 411.751 111 402.5 111ZM314.5 111C305.25 111 296.874 114.75 290.812 120.812C284.75 126.874 281 135.249 281 144.5C281 153.75 284.75 162.126 290.812 168.188C296.874 174.25 305.249 178 314.5 178C323.75 178 332.126 174.25 338.188 168.188C344.25 162.126 348 153.751 348 144.5C348 135.25 344.25 126.874 338.188 120.812C332.126 114.75 323.751 111 314.5 111ZM226.5 111C217.25 111 208.874 114.75 202.812 120.812C196.75 126.874 193 135.249 193 144.5C193 153.75 196.75 162.126 202.812 168.188C208.874 174.25 217.249 178 226.5 178C235.75 178 244.126 174.25 250.188 168.188C256.25 162.126 260 153.751 260 144.5C260 135.25 256.25 126.874 250.188 120.812C244.126 114.75 235.751 111 226.5 111ZM138.5 111C129.25 111 120.874 114.75 114.812 120.812C108.75 126.874 105 135.249 105 144.5C105 153.75 108.75 162.126 114.812 168.188C120.874 174.25 129.249 178 138.5 178C147.75 178 156.126 174.25 162.188 168.188C168.25 162.126 172 153.751 172 144.5C172 135.25 168.25 126.874 162.188 120.812C156.126 114.75 147.751 111 138.5 111ZM50.5 111C41.25 111 32.874 114.75 26.812 120.812C20.75 126.874 17 135.249 17 144.5C17 153.75 20.75 162.126 26.812 168.188C32.874 174.25 41.249 178 50.5 178C59.75 178 68.126 174.25 74.188 168.188C80.25 162.126 84 153.751 84 144.5C84 135.25 80.25 126.874 74.188 120.812C68.126 114.75 59.751 111 50.5 111ZM578.5 23C569.25 23 560.874 26.75 554.812 32.812C548.75 38.874 545 47.249 545 56.5C545 65.75 548.75 74.126 554.812 80.188C560.874 86.25 569.249 90 578.5 90C587.75 90 596.126 86.25 602.188 80.188C608.25 74.126 612 65.751 612 56.5C612 47.25 608.25 38.874 602.188 32.812C596.126 26.75 587.751 23 578.5 23ZM490.5 23C481.25 23 472.874 26.75 466.812 32.812C460.75 38.874 457 47.249 457 56.5C457 65.75 460.75 74.126 466.812 80.188C472.874 86.25 481.249 90 490.5 90C499.75 90 508.126 86.25 514.188 80.188C520.25 74.126 524 65.751 524 56.5C524 47.25 520.25 38.874 514.188 32.812C508.126 26.75 499.751 23 490.5 23ZM402.5 23C393.25 23 384.874 26.75 378.812 32.812C372.75 38.874 369 47.249 369 56.5C369 65.75 372.75 74.126 378.812 80.188C384.874 86.25 393.249 90 402.5 90C411.75 90 420.126 86.25 426.188 80.188C432.25 74.126 436 65.751 436 56.5C436 47.25 432.25 38.874 426.188 32.812C420.126 26.75 411.751 23 402.5 23ZM314.5 23C305.25 23 296.874 26.75 290.812 32.812C284.75 38.874 281 47.249 281 56.5C281 65.75 284.75 74.126 290.812 80.188C296.874 86.25 305.249 90 314.5 90C323.75 90 332.126 86.25 338.188 80.188C344.25 74.126 348 65.751 348 56.5C348 47.25 344.25 38.874 338.188 32.812C332.126 26.75 323.751 23 314.5 23ZM226.5 23C217.25 23 208.874 26.75 202.812 32.812C196.75 38.874 193 47.249 193 56.5C193 65.75 196.75 74.126 202.812 80.188C208.874 86.25 217.249 90 226.5 90C235.75 90 244.126 86.25 250.188 80.188C256.25 74.126 260 65.751 260 56.5C260 47.25 256.25 38.874 250.188 32.812C244.126 26.75 235.751 23 226.5 23ZM138.5 23C129.25 23 120.874 26.75 114.812 32.812C108.75 38.874 105 47.249 105 56.5C105 65.75 108.75 74.126 114.812 80.188C120.874 86.25 129.249 90 138.5 90C147.75 90 156.126 86.25 162.188 80.188C168.25 74.126 172 65.751 172 56.5C172 47.25 168.25 38.874 162.188 32.812C156.126 26.75 147.751 23 138.5 23ZM50.5 23C41.25 23 32.874 26.75 26.812 32.812C20.75 38.874 17 47.249 17 56.5C17 65.75 20.75 74.126 26.812 80.188C32.874 86.25 41.249 90 50.5 90C59.75 90 68.126 86.25 74.188 80.188C80.25 74.126 84 65.751 84 56.5C84 47.25 80.25 38.874 74.188 32.812C68.126 26.75 59.751 23 50.5 23Z" stroke="black" stroke-width="3"/>
<defs>
<filter id="filter0_i_78_155" x="0" y="0" width="632" height="588" filterUnits="userSpaceOnUse" color-interpolation-filters="sRGB">
<feFlood flood-opacity="0" result="BackgroundImageFix"/>
<feBlend mode="normal" in="SourceGraphic" in2="BackgroundImageFix" result="shape"/>
<feColorMatrix in="SourceAlpha" type="matrix" values="0 0 0 0 0 0 0 0 0 0 0 0 0 0 0 0 0 0 127 0" result="hardAlpha"/>
<feOffset dy="10"/>
<feGaussianBlur stdDeviation="2"/>
<feComposite in2="hardAlpha" operator="arithmetic" k2="-1" k3="1"/>
<feColorMatrix type="matrix" values="0 0 0 0 0 0 0 0 0 0 0 0 0 0 0 0 0 0 1 0"/>
<feBlend mode="normal" in2="shape" result="effect1_innerShadow_78_155"/>
</filter>
<filter id="filter1_i_78_155" x="-1.5" y="4.5" width="632" height="588" filterUnits="userSpaceOnUse" color-interpolation-filters="sRGB">
<feFlood flood-opacity="0" result="BackgroundImageFix"/>
<feBlend mode="normal" in="SourceGraphic" in2="BackgroundImageFix" result="shape"/>
<feColorMatrix in="SourceAlpha" type="matrix" values="0 0 0 0 0 0 0 0 0 0 0 0 0 0 0 0 0 0 127 0" result="hardAlpha"/>
<feOffset dy="4"/>
<feGaussianBlur stdDeviation="2"/>
<feComposite in2="hardAlpha" operator="arithmetic" k2="-1" k3="1"/>
<feColorMatrix type="matrix" values="0 0 0 0 0 0 0 0 0 0 0 0 0 0 0 0 0 0 0.25 0"/>
<feBlend mode="normal" in2="shape" result="effect1_innerShadow_78_155"/>
</filter>
</defs>
</svg>
